<?xml version="1.0" standalone="no"?>
<!DOCTYPE svg PUBLIC "-//W3C//DTD SVG 20010904//EN"
 "http://www.w3.org/TR/2001/REC-SVG-20010904/DTD/svg10.dtd">
<svg version="1.0" xmlns="http://www.w3.org/2000/svg"
 width="500.000000pt" height="500.000000pt" viewBox="0 0 500.000000 500.000000"
 preserveAspectRatio="xMidYMid meet">

<g transform="translate(0.000000,500.000000) scale(0.100000,-0.100000)"
fill="#000000" stroke="none">
<path d="M1736 3951 c-4 -5 -2 -12 3 -15 5 -4 12 -2 15 3 4 5 2 12 -3 15 -5 4
-12 2 -15 -3z"/>
<path d="M2000 3946 c0 -9 5 -16 10 -16 6 0 10 4 10 9 0 6 -4 13 -10 16 -5 3
-10 -1 -10 -9z"/>
<path d="M2266 3951 c-4 -5 -2 -12 3 -15 5 -4 12 -2 15 3 4 5 2 12 -3 15 -5 4
-12 2 -15 -3z"/>
<path d="M2536 3951 c-4 -7 -5 -15 -2 -18 9 -9 19 4 14 18 -4 11 -6 11 -12 0z"/>
<path d="M2796 3951 c-4 -5 -2 -12 3 -15 5 -4 12 -2 15 3 4 5 2 12 -3 15 -5 4
-12 2 -15 -3z"/>
<path d="M3065 3951 c-3 -5 -1 -12 5 -16 5 -3 10 1 10 9 0 18 -6 21 -15 7z"/>
<path d="M1990 3681 c0 -15 6 -21 21 -21 14 0 19 5 17 17 -5 26 -38 29 -38 4z"/>
<path d="M2255 3690 c-4 -7 -3 -16 3 -22 14 -14 45 -2 40 15 -6 16 -34 21 -43
7z"/>
<path d="M2527 3693 c-14 -13 -6 -33 13 -33 13 0 20 7 20 20 0 19 -20 27 -33
13z"/>
<path d="M2784 3689 c-3 -6 0 -17 7 -25 18 -17 44 -2 36 20 -7 18 -33 21 -43
5z"/>
<path d="M1470 3680 c0 -5 5 -10 11 -10 5 0 7 5 4 10 -3 6 -8 10 -11 10 -2 0
-4 -4 -4 -10z"/>
<path d="M1732 3679 c2 -6 8 -10 13 -10 5 0 11 4 13 10 2 6 -4 11 -13 11 -9 0
-15 -5 -13 -11z"/>
<path d="M3062 3681 c2 -7 7 -12 11 -12 12 1 9 15 -3 20 -7 2 -11 -2 -8 -8z"/>
<path d="M3330 3680 c0 -5 5 -10 10 -10 6 0 10 5 10 10 0 6 -4 10 -10 10 -5 0
-10 -4 -10 -10z"/>
<path d="M1982 3438 c-17 -17 -15 -46 6 -56 36 -19 75 24 46 52 -19 19 -36 20
-52 4z"/>
<path d="M2252 3438 c-30 -30 3 -77 40 -57 30 16 16 69 -17 69 -6 0 -16 -5
-23 -12z"/>
<path d="M2510 3431 c-20 -38 13 -71 51 -51 21 12 25 40 7 58 -18 18 -46 14
-58 -7z"/>
<path d="M2782 3438 c-30 -30 11 -85 44 -57 25 21 11 69 -21 69 -6 0 -16 -5
-23 -12z"/>
<path d="M1722 3427 c-9 -10 -9 -18 1 -31 17 -23 49 -11 45 18 -4 25 -30 32
-46 13z"/>
<path d="M3050 3425 c-11 -13 -11 -18 2 -31 20 -20 50 -7 46 20 -4 26 -30 32
-48 11z"/>
<path d="M1454 3419 c-9 -15 12 -33 30 -26 9 4 16 13 16 22 0 17 -35 21 -46 4z"/>
<path d="M3320 3410 c0 -13 7 -20 20 -20 13 0 20 7 20 20 0 13 -7 20 -20 20
-13 0 -20 -7 -20 -20z"/>
<path d="M1200 3410 c0 -5 5 -10 10 -10 6 0 10 5 10 10 0 6 -4 10 -10 10 -5 0
-10 -4 -10 -10z"/>
<path d="M3595 3410 c4 -6 11 -8 16 -5 14 9 11 15 -7 15 -8 0 -12 -5 -9 -10z"/>
<path d="M1963 3174 c-15 -24 -15 -29 -2 -53 29 -52 99 -35 99 24 0 57 -66 76
-97 29z"/>
<path d="M2237 3182 c-33 -36 -8 -92 40 -92 25 0 53 30 53 57 0 46 -62 69 -93
35z"/>
<path d="M2507 3187 c-13 -9 -18 -23 -15 -47 5 -59 78 -69 99 -13 18 49 -42
92 -84 60z"/>
<path d="M2763 3174 c-15 -24 -15 -29 -2 -53 29 -51 99 -30 99 30 0 51 -68 67
-97 23z"/>
<path d="M1447 3174 c-14 -15 -7 -53 12 -59 31 -10 52 5 49 34 -2 19 -9 27
-28 29 -14 2 -29 0 -33 -4z"/>
<path d="M1714 3166 c-10 -26 1 -51 22 -54 27 -4 47 21 39 48 -7 24 -53 28
-61 6z"/>
<path d="M3044 3166 c-11 -28 1 -51 25 -51 28 0 47 25 38 49 -8 20 -56 21 -63
2z"/>
<path d="M3309 3164 c-17 -21 0 -49 31 -49 31 0 48 28 31 49 -8 9 -21 16 -31
16 -10 0 -23 -7 -31 -16z"/>
<path d="M1193 3154 c-8 -21 13 -42 28 -27 13 13 5 43 -11 43 -6 0 -13 -7 -17
-16z"/>
<path d="M3584 3155 c-4 -9 -2 -21 4 -27 15 -15 44 -1 40 19 -4 23 -36 29 -44
8z"/>
<path d="M936 3151 c-4 -5 -2 -12 3 -15 5 -4 12 -2 15 3 4 5 2 12 -3 15 -5 4
-12 2 -15 -3z"/>
<path d="M3860 3150 c0 -5 5 -10 10 -10 6 0 10 5 10 10 0 6 -4 10 -10 10 -5 0
-10 -4 -10 -10z"/>
<path d="M1957 2935 c-40 -38 -34 -96 14 -120 38 -20 53 -19 85 8 36 32 36 83
-1 115 -34 29 -64 28 -98 -3z"/>
<path d="M2225 2935 c-51 -50 -20 -129 50 -129 45 0 75 31 75 76 0 36 -40 78
-75 78 -14 0 -37 -11 -50 -25z"/>
<path d="M2494 2937 c-20 -17 -27 -33 -27 -57 0 -24 7 -40 27 -57 32 -27 47
-28 85 -8 51 26 52 99 1 128 -38 23 -54 21 -86 -6z"/>
<path d="M2756 2935 c-47 -44 -26 -114 40 -131 68 -17 115 90 58 135 -35 28
-65 27 -98 -4z"/>
<path d="M1702 2918 c-39 -39 9 -108 61 -89 31 12 41 41 26 75 -9 20 -19 26
-44 26 -17 0 -36 -5 -43 -12z"/>
<path d="M3032 2918 c-21 -21 -14 -66 12 -83 48 -32 104 22 76 74 -12 24 -68
29 -88 9z"/>
<path d="M1456 2907 c-21 -15 -18 -45 6 -60 12 -8 21 -7 32 2 21 17 21 57 0
65 -20 8 -17 8 -38 -7z"/>
<path d="M3316 2904 c-19 -18 -19 -20 -6 -45 6 -10 19 -19 30 -19 16 0 40 26
40 44 0 8 -31 36 -40 36 -5 0 -16 -7 -24 -16z"/>
<path d="M1186 2895 c-8 -22 4 -45 24 -45 20 0 32 23 24 45 -4 8 -14 15 -24
15 -10 0 -20 -7 -24 -15z"/>
<path d="M3584 2896 c-9 -24 4 -48 23 -44 12 2 18 12 18 28 0 29 -32 41 -41
16z"/>
<path d="M670 2880 c0 -5 5 -10 10 -10 6 0 10 5 10 10 0 6 -4 10 -10 10 -5 0
-10 -4 -10 -10z"/>
<path d="M930 2880 c0 -5 7 -10 15 -10 8 0 15 5 15 10 0 6 -7 10 -15 10 -8 0
-15 -4 -15 -10z"/>
<path d="M3860 2880 c0 -5 5 -10 10 -10 6 0 10 5 10 10 0 6 -4 10 -10 10 -5 0
-10 -4 -10 -10z"/>
<path d="M4130 2880 c0 -5 5 -10 10 -10 6 0 10 5 10 10 0 6 -4 10 -10 10 -5 0
-10 -4 -10 -10z"/>
<path d="M1953 2701 c-76 -47 -53 -171 34 -187 69 -13 123 33 123 104 0 76
-91 124 -157 83z"/>
<path d="M2234 2711 c-76 -33 -85 -143 -14 -184 79 -47 173 17 156 106 -12 62
-85 102 -142 78z"/>
<path d="M2510 2713 c-8 -3 -27 -17 -42 -31 -33 -30 -38 -87 -13 -126 35 -54
126 -58 165 -9 22 28 27 91 10 124 -19 35 -80 57 -120 42z"/>
<path d="M2760 2708 c-31 -16 -64 -81 -56 -112 22 -89 142 -114 191 -40 54 83
-46 198 -135 152z"/>
<path d="M1690 2670 c-26 -26 -27 -90 -2 -113 30 -27 87 -22 111 9 28 35 26
69 -4 99 -30 31 -77 33 -105 5z"/>
<path d="M3021 2668 c-31 -33 -34 -55 -14 -91 16 -27 26 -33 60 -35 34 -3 44
1 62 24 28 35 27 69 -4 99 -31 32 -77 33 -104 3z"/>
<path d="M1440 2650 c-11 -11 -20 -28 -20 -38 0 -24 31 -52 58 -52 47 0 69 61
34 93 -25 22 -48 21 -72 -3z"/>
<path d="M3300 2650 c-24 -24 -25 -38 -4 -68 28 -41 94 -22 94 28 0 55 -52 78
-90 40z"/>
<path d="M1179 2634 c-17 -21 0 -49 31 -49 31 0 48 28 31 49 -8 9 -21 16 -31
16 -10 0 -23 -7 -31 -16z"/>
<path d="M3582 2641 c-8 -4 -12 -19 -10 -32 2 -19 9 -24 33 -24 33 0 45 25 25
50 -14 17 -29 19 -48 6z"/>
<path d="M931 2631 c-17 -11 -7 -41 13 -41 22 0 30 20 15 36 -9 8 -19 10 -28
5z"/>
<path d="M3861 2630 c-17 -10 -7 -40 14 -40 8 0 15 9 15 19 0 24 -12 32 -29
21z"/>
<path d="M670 2614 c0 -8 5 -12 10 -9 6 4 8 11 5 16 -9 14 -15 11 -15 -7z"/>
<path d="M4130 2609 c0 -5 5 -7 10 -4 6 3 10 8 10 11 0 2 -4 4 -10 4 -5 0 -10
-5 -10 -11z"/>
<path d="M2209 2455 c-31 -17 -59 -71 -59 -113 0 -44 39 -95 87 -111 126 -44
218 115 119 206 -29 27 -44 33 -78 33 -24 -1 -55 -7 -69 -15z"/>
<path d="M2484 2460 c-39 -16 -64 -59 -64 -111 0 -150 207 -174 243 -28 10 39
-10 95 -44 123 -32 27 -91 34 -135 16z"/>
<path d="M1945 2428 c-78 -69 -25 -199 75 -184 69 10 112 96 80 157 -26 48
-112 63 -155 27z"/>
<path d="M2740 2421 c-38 -37 -45 -70 -27 -114 31 -72 121 -86 171 -26 83 98
-54 230 -144 140z"/>
<path d="M1720 2423 c-53 -20 -69 -94 -28 -133 68 -63 174 44 108 110 -11 11
-24 20 -29 20 -5 0 -15 2 -23 4 -7 3 -20 2 -28 -1z"/>
<path d="M3043 2420 c-27 -11 -55 -63 -46 -87 12 -34 46 -63 75 -63 38 0 78
40 78 78 0 27 -31 72 -50 72 -4 0 -14 2 -22 4 -7 3 -23 1 -35 -4z"/>
<path d="M1435 2380 c-25 -27 -10 -71 27 -84 22 -8 32 -6 48 9 22 20 27 64 8
83 -19 19 -63 14 -83 -8z"/>
<path d="M3295 2376 c-34 -51 30 -111 75 -71 22 20 26 65 8 83 -21 21 -66 14
-83 -12z"/>
<path d="M1181 2366 c-16 -20 3 -56 29 -56 23 0 43 32 34 54 -8 20 -48 21 -63
2z"/>
<path d="M3573 2364 c-8 -22 10 -49 32 -49 10 0 22 7 28 16 15 24 1 49 -28 49
-15 0 -28 -7 -32 -16z"/>
<path d="M923 2354 c-8 -22 18 -37 36 -20 7 8 10 19 7 25 -10 16 -36 13 -43
-5z"/>
<path d="M3852 2348 c2 -13 10 -23 18 -23 8 0 16 10 18 23 3 17 -2 22 -18 22
-16 0 -21 -5 -18 -22z"/>
<path d="M670 2350 c0 -5 5 -10 10 -10 6 0 10 5 10 10 0 6 -4 10 -10 10 -5 0
-10 -4 -10 -10z"/>
<path d="M4130 2350 c0 -5 5 -10 10 -10 6 0 10 5 10 10 0 6 -4 10 -10 10 -5 0
-10 -4 -10 -10z"/>
<path d="M2221 2193 c-66 -33 -91 -118 -52 -177 26 -38 57 -55 104 -56 52 0
91 22 111 64 32 68 9 138 -57 169 -44 21 -63 21 -106 0z"/>
<path d="M2494 2196 c-78 -34 -101 -136 -45 -198 27 -30 34 -33 89 -33 50 0
65 4 86 24 65 61 50 163 -31 205 -38 19 -58 20 -99 2z"/>
<path d="M1935 2154 c-37 -40 -35 -106 4 -145 23 -23 38 -29 71 -29 89 0 133
100 74 169 -22 27 -32 31 -75 31 -41 0 -54 -5 -74 -26z"/>
<path d="M2743 2165 c-27 -19 -46 -75 -37 -109 10 -41 59 -76 106 -76 32 0 46
6 69 31 63 68 20 169 -73 169 -24 0 -53 -7 -65 -15z"/>
<path d="M1692 2137 c-58 -62 -1 -153 78 -126 55 20 67 82 25 124 -31 32 -74
33 -103 2z"/>
<path d="M3020 2135 c-57 -60 1 -153 77 -124 56 21 71 82 28 124 -32 33 -74
33 -105 0z"/>
<path d="M1460 2133 c-21 -7 -40 -33 -40 -54 0 -40 69 -66 98 -37 20 20 14 65
-10 82 -24 17 -25 17 -48 9z"/>
<path d="M3317 2133 c-29 -7 -41 -51 -22 -79 17 -26 62 -33 83 -12 20 20 14
65 -10 82 -12 9 -25 15 -28 15 -3 -1 -13 -3 -23 -6z"/>
<path d="M1179 2099 c-9 -18 -7 -25 10 -42 l21 -21 21 21 c17 17 19 24 10 42
-7 11 -20 21 -31 21 -11 0 -24 -10 -31 -21z"/>
<path d="M3580 2105 c-26 -31 13 -82 44 -56 19 16 21 42 4 59 -16 16 -33 15
-48 -3z"/>
<path d="M931 2096 c-14 -17 -7 -36 14 -36 22 0 29 20 13 36 -13 13 -16 13
-27 0z"/>
<path d="M3861 2100 c-17 -10 -7 -40 14 -40 8 0 15 9 15 19 0 24 -12 32 -29
21z"/>
<path d="M670 2080 c0 -5 5 -10 10 -10 6 0 10 5 10 10 0 6 -4 10 -10 10 -5 0
-10 -4 -10 -10z"/>
<path d="M4130 2080 c0 -5 5 -10 10 -10 6 0 10 5 10 10 0 6 -4 10 -10 10 -5 0
-10 -4 -10 -10z"/>
<path d="M1963 1910 c-47 -19 -71 -98 -44 -149 18 -32 68 -54 108 -46 51 9 83
48 83 99 -1 79 -72 126 -147 96z"/>
<path d="M2204 1886 c-45 -45 -47 -92 -5 -138 25 -28 36 -33 75 -33 64 0 101
37 101 101 0 39 -5 50 -33 75 -46 42 -93 40 -138 -5z"/>
<path d="M2495 1909 c-86 -50 -68 -176 28 -194 39 -8 90 13 107 44 18 35 12
98 -13 126 -25 30 -90 43 -122 24z"/>
<path d="M2763 1910 c-26 -10 -63 -66 -63 -93 0 -32 29 -76 61 -93 68 -35 149
18 149 96 0 31 -6 44 -35 69 -37 32 -70 38 -112 21z"/>
<path d="M1692 1874 c-16 -11 -22 -25 -22 -55 0 -50 27 -79 74 -79 39 0 76 37
76 75 0 12 -9 34 -21 49 -24 30 -72 35 -107 10z"/>
<path d="M3029 1880 c-9 -5 -22 -23 -29 -39 -31 -76 78 -139 129 -75 12 15 21
37 21 49 0 37 -37 75 -73 75 -18 0 -39 -5 -48 -10z"/>
<path d="M1437 1852 c-10 -10 -17 -28 -17 -40 0 -22 34 -52 61 -52 22 0 49 32
49 58 0 47 -61 69 -93 34z"/>
<path d="M3295 1846 c-35 -53 34 -115 79 -70 9 8 16 26 16 39 0 53 -67 75 -95
31z"/>
<path d="M1179 1834 c-17 -21 0 -49 31 -49 31 0 48 28 31 49 -8 9 -21 16 -31
16 -10 0 -23 -7 -31 -16z"/>
<path d="M3574 1836 c-12 -31 0 -51 31 -51 27 0 30 3 30 30 0 25 -4 30 -28 33
-17 2 -29 -2 -33 -12z"/>
<path d="M926 1831 c-9 -14 4 -41 19 -41 18 0 26 25 12 39 -13 13 -24 14 -31
2z"/>
<path d="M3853 1824 c-8 -21 13 -42 28 -27 13 13 5 43 -11 43 -6 0 -13 -7 -17
-16z"/>
<path d="M670 1820 c0 -5 5 -10 11 -10 5 0 7 5 4 10 -3 6 -8 10 -11 10 -2 0
-4 -4 -4 -10z"/>
<path d="M4130 1820 c0 -5 5 -10 11 -10 5 0 7 5 4 10 -3 6 -8 10 -11 10 -2 0
-4 -4 -4 -10z"/>
<path d="M1975 1618 c-52 -28 -61 -84 -19 -123 15 -14 35 -25 45 -25 81 0 113
98 47 144 -26 19 -45 20 -73 4z"/>
<path d="M2243 1620 c-47 -19 -57 -87 -18 -125 13 -14 36 -25 50 -25 35 0 75
42 75 78 0 55 -56 93 -107 72z"/>
<path d="M2502 1614 c-52 -36 -46 -111 9 -135 25 -10 36 -9 63 4 57 27 57 110
0 136 -33 15 -45 14 -72 -5z"/>
<path d="M2775 1618 c-51 -27 -60 -84 -20 -123 49 -49 125 -16 125 55 0 60
-55 96 -105 68z"/>
<path d="M1712 1594 c-30 -20 -30 -68 0 -88 30 -21 43 -20 68 6 27 29 25 52
-6 77 -32 25 -33 25 -62 5z"/>
<path d="M3042 1594 c-52 -36 -5 -122 53 -96 14 6 28 23 31 38 6 22 2 32 -20
51 -32 27 -35 28 -64 7z"/>
<path d="M1457 1579 c-23 -13 -22 -46 2 -59 27 -14 51 -2 51 26 0 29 -28 46
-53 33z"/>
<path d="M3315 1574 c-8 -9 -15 -19 -15 -24 0 -11 29 -40 40 -40 10 0 40 29
40 38 -1 29 -44 46 -65 26z"/>
<path d="M1186 1565 c-8 -22 4 -45 24 -45 22 0 34 28 19 46 -15 18 -35 18 -43
-1z"/>
<path d="M3584 1566 c-9 -24 4 -48 23 -44 12 2 18 12 18 28 0 29 -32 41 -41
16z"/>
<path d="M670 1550 c0 -5 5 -10 10 -10 6 0 10 5 10 10 0 6 -4 10 -10 10 -5 0
-10 -4 -10 -10z"/>
<path d="M930 1550 c0 -5 7 -10 15 -10 8 0 15 5 15 10 0 6 -7 10 -15 10 -8 0
-15 -4 -15 -10z"/>
<path d="M3860 1550 c0 -5 5 -10 10 -10 6 0 10 5 10 10 0 6 -4 10 -10 10 -5 0
-10 -4 -10 -10z"/>
<path d="M4130 1550 c0 -5 5 -10 10 -10 6 0 10 5 10 10 0 6 -4 10 -10 10 -5 0
-10 -4 -10 -10z"/>
<path d="M1982 1333 c-7 -3 -18 -16 -23 -30 -13 -36 12 -73 49 -73 36 0 52 17
52 53 0 43 -37 67 -78 50z"/>
<path d="M2242 1324 c-41 -29 -19 -94 33 -94 52 0 74 65 33 94 -12 9 -27 16
-33 16 -6 0 -21 -7 -33 -16z"/>
<path d="M2508 1329 c-21 -12 -24 -69 -6 -87 17 -17 63 -15 78 3 42 50 -16
117 -72 84z"/>
<path d="M2770 1320 c-25 -25 -26 -52 -2 -73 21 -19 45 -21 73 -7 39 21 12
100 -34 100 -9 0 -26 -9 -37 -20z"/>
<path d="M1452 1311 c-8 -4 -12 -19 -10 -32 2 -19 9 -24 33 -24 24 0 31 5 33
24 4 23 -11 41 -33 41 -5 0 -16 -4 -23 -9z"/>
<path d="M1714 1306 c-11 -28 1 -51 28 -54 31 -4 48 29 28 53 -16 19 -49 19
-56 1z"/>
<path d="M3044 1306 c-3 -8 -4 -23 -2 -33 5 -25 61 -25 66 0 7 37 -51 67 -64
33z"/>
<path d="M3309 1304 c-9 -11 -10 -20 -2 -32 25 -41 86 -14 63 27 -13 25 -42
27 -61 5z"/>
<path d="M1193 1294 c-8 -21 13 -42 28 -27 13 13 5 43 -11 43 -6 0 -13 -7 -17
-16z"/>
<path d="M3586 1294 c-7 -19 1 -34 19 -34 8 0 16 4 19 9 9 14 -4 41 -19 41 -7
0 -16 -7 -19 -16z"/>
<path d="M935 1280 c4 -6 11 -8 16 -5 14 9 11 15 -7 15 -8 0 -12 -5 -9 -10z"/>
<path d="M3860 1280 c0 -5 5 -10 10 -10 6 0 10 5 10 10 0 6 -4 10 -10 10 -5 0
-10 -4 -10 -10z"/>
<path d="M2257 1049 c-23 -13 -22 -56 2 -64 28 -9 51 5 51 31 0 29 -28 46 -53
33z"/>
<path d="M2516 1041 c-33 -36 18 -83 52 -49 16 16 15 33 -4 52 -20 21 -27 20
-48 -3z"/>
<path d="M2785 1046 c-20 -14 -17 -44 6 -59 24 -15 49 -1 49 27 0 32 -30 50
-55 32z"/>
<path d="M1726 1034 c-8 -8 -13 -21 -9 -30 8 -22 47 -13 51 12 4 27 -22 38
-42 18z"/>
<path d="M1975 1030 c-8 -27 12 -52 39 -48 16 2 21 10 21 33 0 25 -4 31 -27
33 -19 2 -28 -2 -33 -18z"/>
<path d="M3057 1037 c-22 -16 -13 -47 14 -47 25 0 36 28 17 46 -11 12 -17 12
-31 1z"/>
<path d="M1457 1026 c-8 -19 15 -37 32 -26 17 10 7 40 -13 40 -7 0 -16 -6 -19
-14z"/>
<path d="M3323 1024 c-8 -21 13 -42 28 -27 13 13 5 43 -11 43 -6 0 -13 -7 -17
-16z"/>
<path d="M1200 1020 c0 -5 5 -10 10 -10 6 0 10 5 10 10 0 6 -4 10 -10 10 -5 0
-10 -4 -10 -10z"/>
<path d="M3595 1020 c-3 -5 1 -10 10 -10 9 0 13 5 10 10 -3 6 -8 10 -10 10 -2
0 -7 -4 -10 -10z"/>
<path d="M1990 750 c0 -13 7 -20 20 -20 13 0 20 7 20 20 0 13 -7 20 -20 20
-13 0 -20 -7 -20 -20z"/>
<path d="M2255 760 c-4 -7 -3 -16 3 -22 14 -14 45 -2 40 15 -6 16 -34 21 -43
7z"/>
<path d="M2520 750 c0 -13 7 -20 20 -20 13 0 20 7 20 20 0 13 -7 20 -20 20
-13 0 -20 -7 -20 -20z"/>
<path d="M2784 759 c-9 -15 12 -33 30 -26 9 4 16 13 16 22 0 17 -35 21 -46 4z"/>
<path d="M3066 763 c-11 -11 -6 -23 9 -23 8 0 15 4 15 9 0 13 -16 22 -24 14z"/>
<path d="M1470 750 c0 -5 5 -10 10 -10 6 0 10 5 10 10 0 6 -4 10 -10 10 -5 0
-10 -4 -10 -10z"/>
<path d="M1730 750 c0 -5 7 -10 15 -10 8 0 15 5 15 10 0 6 -7 10 -15 10 -8 0
-15 -4 -15 -10z"/>
<path d="M3330 750 c0 -5 5 -10 10 -10 6 0 10 5 10 10 0 6 -4 10 -10 10 -5 0
-10 -4 -10 -10z"/>
<path d="M1735 491 c-3 -5 -1 -12 5 -16 5 -3 10 1 10 9 0 18 -6 21 -15 7z"/>
<path d="M2271 484 c0 -11 3 -14 6 -6 3 7 2 16 -1 19 -3 4 -6 -2 -5 -13z"/>
<path d="M2800 484 c0 -8 5 -12 10 -9 6 4 8 11 5 16 -9 14 -15 11 -15 -7z"/>
<path d="M3065 491 c-3 -5 -1 -12 5 -16 5 -3 10 1 10 9 0 18 -6 21 -15 7z"/>
</g>
</svg>
